<svg xmlns="http://www.w3.org/2000/svg" width="33.612" height="36.198" viewBox="0 0 33.612 36.198">
    <path d="M27.814 20.412a26.288 26.288 0 0 1-1.959-10.07 7.2 7.2 0 0 0-1.938-5.292 8.683 8.683 0 0 0-5.333-2.364 1.824 1.824 0 0 0 .161-.747A1.87 1.87 0 0 0 18.18.566a1.951 1.951 0 0 0-2.747 0 1.87 1.87 0 0 0-.566 1.374 1.819 1.819 0 0 0 .162.747A8.681 8.681 0 0 0 9.696 5.05a7.194 7.194 0 0 0-1.939 5.292 26.275 26.275 0 0 1-1.959 10.07 20.6 20.6 0 0 1-5.8 8.03 2.622 2.622 0 0 0 2.586 2.586h9.05a5.171 5.171 0 0 0 8.827 3.656 4.982 4.982 0 0 0 1.515-3.656h9.051a2.622 2.622 0 0 0 2.586-2.586 20.617 20.617 0 0 1-5.799-8.03zm-11.008 14.17a3.551 3.551 0 0 1-3.555-3.555.324.324 0 0 1 .647 0 2.931 2.931 0 0 0 2.909 2.909.323.323 0 1 1 0 .646z" data-name="Path 2282"/>
</svg>
