<svg xmlns="http://www.w3.org/2000/svg" width="60" height="60" viewBox="0 0 60 60">
    <g id="otp" transform="translate(-197 -952)">
        <circle id="Ellipse_9" cx="30" cy="30" r="30" fill="#fff" data-name="Ellipse 9" transform="translate(197 952)"/>
        <g id="phone_2_" data-name="phone (2)" transform="translate(142.021 960.369)">
            <g id="Group_619" data-name="Group 619" transform="translate(71.6)">
                <path id="Path_2283" fill="#404242" d="M97.174 1.189A4.018 4.018 0 0 0 94.327 0h-18.7A4.04 4.04 0 0 0 71.6 4.027v34.4a4.044 4.044 0 0 0 4.027 4.031h18.7a4.044 4.044 0 0 0 4.027-4.027v-34.4a4.018 4.018 0 0 0-1.18-2.842zM84.979 39.73a1.088 1.088 0 1 1 1.088-1.088 1.088 1.088 0 0 1-1.088 1.088zm10.182-6.83a2.632 2.632 0 0 1-2.632 2.632h-15.1a2.632 2.632 0 0 1-2.636-2.632V7.26a2.632 2.632 0 0 1 2.632-2.632h15.108a2.632 2.632 0 0 1 2.632 2.632z" data-name="Path 2283" transform="translate(-71.6)"/>
            </g>
        </g>
    </g>
</svg>
