<svg xmlns="http://www.w3.org/2000/svg" id="Page-1" width="35.112" height="40.964" viewBox="0 0 35.112 40.964">
    <defs>
        <style>
            .cls-1{fill:#002353}
        </style>
    </defs>
    <g id="_056---Smartwatch-Bluetooth" data-name="056---Smartwatch-Bluetooth">
        <path id="Shape" d="M44.35 21h1.938a.732.732 0 0 1 .731.732v2.926a.732.732 0 0 1-.731.732h-1.463z" class="cls-1" transform="translate(-11.908 -5.638)"/>
        <path id="Shape-2" d="M23 22.654v9.886l8.1-5.21z" class="cls-1" data-name="Shape" transform="translate(-6.175 -6.082)"/>
        <path id="Shape-3" d="M23 9.618v6.9l6.356-3.718z" class="cls-1" data-name="Shape" transform="translate(-6.175 -2.582)"/>
        <path id="Shape-4" d="M3.789 42.415A5.294 5.294 0 0 1 0 40.822v2.325A3.731 3.731 0 0 0 3.789 46.8h2.017l-.168-1.271a1.463 1.463 0 0 1 1.45-1.655H25.1a1.463 1.463 0 0 1 1.45 1.655l-.17 1.271h2.02a3.731 3.731 0 0 0 3.789-3.658v-2.321a5.294 5.294 0 0 1-3.789 1.594z" class="cls-1" data-name="Shape" transform="translate(0 -10.96)"/>
        <path id="Shape-5" d="M25.24.439A.731.731 0 0 0 24.57 0h-9.8a.732.732 0 0 0-.67.439l-.78 1.756h12.7z" class="cls-1" data-name="Shape" transform="translate(-3.576)"/>
        <path id="Shape-6" d="M10.473 52.946a.732.732 0 0 0 .723.637h15a.732.732 0 0 0 .723-.636L27.7 47H9.69z" class="cls-1" data-name="Shape" transform="translate(-2.602 -12.619)"/>
        <path id="Shape-7" d="M3.789 31.334H28.4a3.793 3.793 0 0 0 3.5-2.268 3.576 3.576 0 0 0 .284-1.39c0-.13-.006-.26-.018-.389L29.96 6.966A2.242 2.242 0 0 0 27.695 5H4.491a2.242 2.242 0 0 0-2.267 1.966L.015 27.295c-.009.122-.015.252-.015.382a3.584 3.584 0 0 0 .286 1.4 3.791 3.791 0 0 0 3.5 2.26zm1.693-9.409l9.075-5.318-7.608-4.389a.732.732 0 0 1 .732-1.267l7.681 4.43V7.194a.732.732 0 0 1 1.058-.654l8.622 4.312a.732.732 0 0 1 .043 1.286L17.47 16.6l9.23 5.322a.732.732 0 0 1 .03 1.249l-10.241 6.584a.732.732 0 0 1-1.127-.615V17.833l-9.14 5.354a.732.732 0 1 1-.74-1.263z" class="cls-1" data-name="Shape" transform="translate(0 -1.342)"/>
    </g>
</svg>
